<mxfile host="app.diagrams.net" modified="2023-03-08T09:47:58.499Z" agent="5.0 (Windows NT 10.0; Win64; x64) AppleWebKit/537.36 (KHTML, like Gecko) Chrome/109.0.0.0 Safari/537.36" etag="CcobpnDskMpnALS_TcCg" version="20.2.7" type="github">
  <diagram id="Wse6-SNHselBW8uC5L7w" name="FlashDB">
    <mxGraphModel dx="1422" dy="910" grid="1" gridSize="10" guides="1" tooltips="1" connect="1" arrows="1" fold="1" page="1" pageScale="1" pageWidth="827" pageHeight="1169" math="0" shadow="0">
      <root>
        <mxCell id="0" />
        <mxCell id="1" parent="0" />
        <mxCell id="_JxsXFruEywb90SGESwC-1" value="" style="rounded=0;whiteSpace=wrap;html=1;" parent="1" vertex="1">
          <mxGeometry x="100" y="500" width="440" height="170" as="geometry" />
        </mxCell>
        <mxCell id="_JxsXFruEywb90SGESwC-2" value="SectorHeader" style="rounded=0;whiteSpace=wrap;html=1;fillColor=#647687;fontColor=#ffffff;strokeColor=#314354;" parent="1" vertex="1">
          <mxGeometry x="100" y="500" width="120" height="30" as="geometry" />
        </mxCell>
        <mxCell id="_JxsXFruEywb90SGESwC-3" value="KV_Data" style="rounded=0;whiteSpace=wrap;html=1;fillColor=#cce5ff;strokeColor=#36393d;" parent="1" vertex="1">
          <mxGeometry x="230" y="500" width="120" height="30" as="geometry" />
        </mxCell>
        <mxCell id="_JxsXFruEywb90SGESwC-4" value="KV_Data(Del)" style="rounded=0;whiteSpace=wrap;html=1;fillColor=#ffcccc;strokeColor=#36393d;" parent="1" vertex="1">
          <mxGeometry x="100" y="585" width="120" height="30" as="geometry" />
        </mxCell>
        <mxCell id="_JxsXFruEywb90SGESwC-5" value="KV_Data" style="rounded=0;whiteSpace=wrap;html=1;fillColor=#cce5ff;strokeColor=#36393d;" parent="1" vertex="1">
          <mxGeometry x="360" y="500" width="120" height="30" as="geometry" />
        </mxCell>
        <mxCell id="_JxsXFruEywb90SGESwC-6" value="KV_Data" style="rounded=0;whiteSpace=wrap;html=1;fillColor=#cce5ff;strokeColor=#36393d;" parent="1" vertex="1">
          <mxGeometry x="100" y="540" width="120" height="30" as="geometry" />
        </mxCell>
        <mxCell id="_JxsXFruEywb90SGESwC-7" value="Sector 1" style="text;html=1;strokeColor=none;fillColor=none;align=center;verticalAlign=middle;whiteSpace=wrap;rounded=0;" parent="1" vertex="1">
          <mxGeometry x="10" y="560" width="60" height="30" as="geometry" />
        </mxCell>
        <mxCell id="_JxsXFruEywb90SGESwC-8" value="" style="rounded=0;whiteSpace=wrap;html=1;" parent="1" vertex="1">
          <mxGeometry x="100" y="320" width="440" height="170" as="geometry" />
        </mxCell>
        <mxCell id="_JxsXFruEywb90SGESwC-9" value="SectorHeader" style="rounded=0;whiteSpace=wrap;html=1;fillColor=#647687;fontColor=#ffffff;strokeColor=#314354;" parent="1" vertex="1">
          <mxGeometry x="100" y="320" width="120" height="30" as="geometry" />
        </mxCell>
        <mxCell id="_JxsXFruEywb90SGESwC-10" value="KV_Data" style="rounded=0;whiteSpace=wrap;html=1;fillColor=#cce5ff;strokeColor=#36393d;" parent="1" vertex="1">
          <mxGeometry x="230" y="320" width="120" height="30" as="geometry" />
        </mxCell>
        <mxCell id="_JxsXFruEywb90SGESwC-11" value="KV_Data(Del)" style="rounded=0;whiteSpace=wrap;html=1;fillColor=#ffcccc;strokeColor=#36393d;" parent="1" vertex="1">
          <mxGeometry x="100" y="405" width="120" height="30" as="geometry" />
        </mxCell>
        <mxCell id="_JxsXFruEywb90SGESwC-12" value="KV_Data" style="rounded=0;whiteSpace=wrap;html=1;fillColor=#cce5ff;strokeColor=#36393d;" parent="1" vertex="1">
          <mxGeometry x="360" y="320" width="120" height="30" as="geometry" />
        </mxCell>
        <mxCell id="_JxsXFruEywb90SGESwC-13" value="KV_Data" style="rounded=0;whiteSpace=wrap;html=1;fillColor=#cce5ff;strokeColor=#36393d;" parent="1" vertex="1">
          <mxGeometry x="100" y="360" width="120" height="30" as="geometry" />
        </mxCell>
        <mxCell id="_JxsXFruEywb90SGESwC-14" value="Sector 2" style="text;html=1;strokeColor=none;fillColor=none;align=center;verticalAlign=middle;whiteSpace=wrap;rounded=0;" parent="1" vertex="1">
          <mxGeometry x="10" y="405" width="60" height="30" as="geometry" />
        </mxCell>
        <mxCell id="_JxsXFruEywb90SGESwC-15" value="" style="rounded=0;whiteSpace=wrap;html=1;" parent="1" vertex="1">
          <mxGeometry x="100" y="90" width="440" height="170" as="geometry" />
        </mxCell>
        <mxCell id="_JxsXFruEywb90SGESwC-16" value="SectorHeader" style="rounded=0;whiteSpace=wrap;html=1;fillColor=#647687;fontColor=#ffffff;strokeColor=#314354;" parent="1" vertex="1">
          <mxGeometry x="100" y="90" width="120" height="30" as="geometry" />
        </mxCell>
        <mxCell id="_JxsXFruEywb90SGESwC-21" value="Sector N" style="text;html=1;strokeColor=none;fillColor=none;align=center;verticalAlign=middle;whiteSpace=wrap;rounded=0;" parent="1" vertex="1">
          <mxGeometry x="10" y="150" width="60" height="30" as="geometry" />
        </mxCell>
        <mxCell id="_JxsXFruEywb90SGESwC-22" value="KV_Data(Del)" style="rounded=0;whiteSpace=wrap;html=1;fillColor=#ffcccc;strokeColor=#36393d;" parent="1" vertex="1">
          <mxGeometry x="414" y="640" width="120" height="30" as="geometry" />
        </mxCell>
        <mxCell id="_JxsXFruEywb90SGESwC-23" value="KV_Data(Del)" style="rounded=0;whiteSpace=wrap;html=1;fillColor=#ffcccc;strokeColor=#36393d;" parent="1" vertex="1">
          <mxGeometry x="420" y="450" width="120" height="30" as="geometry" />
        </mxCell>
      </root>
    </mxGraphModel>
  </diagram>
</mxfile>
